<?xml version="1.0" encoding="utf-8"?>
<svg id="master-artboard" viewBox="0 0 2000 1200" version="1.1" xmlns="http://www.w3.org/2000/svg" x="0px" y="0px" style="enable-background:new 0 0 1400 980;" width="2000px" height="1200px"><rect id="ee-background" x="0" y="0" width="2000" height="1200" style="fill: white; fill-opacity: 0; pointer-events: none;"/><path style="fill: rgb(212, 34, 28); fill-opacity: 1; stroke: rgb(0, 0, 0); stroke-opacity: 1; stroke-width: 0; paint-order: fill;" d="M 804.6558837890625 501.9896240234375 L 757.8668823242188 373.3199157714844 L 804.6558837890625 501.9896240234375 Z" transform="matrix(1, 0, 0, 1, 814.0473022460938, -269.2356262207031)"/><path style="fill: rgb(212, 34, 28); fill-opacity: 1; stroke: rgb(0, 0, 0); stroke-opacity: 1; stroke-width: 0; paint-order: fill;" d="M 659.9024658203125 317.75799560546875" transform="matrix(1, 0, 0, 1, 814.0473022460938, -269.2356262207031)"/><path d="M 578.6787719726562 420.6399841308594 C 577.3121337890625 420.6399841308594 576.2554321289062 421.1566467285156 575.5087890625 422.1899719238281 C 574.7554321289062 423.2166442871094 574.3787841796875 424.6466369628906 574.3787841796875 426.47998046875 C 574.3787841796875 430.2999572753906 575.8121337890625 432.2099609375 578.6787719726562 432.2099609375 C 579.8854370117188 432.2099609375 581.3421020507812 431.90997314453125 583.0487670898438 431.3099670410156 L 583.0487670898438 434.3599548339844 C 581.6488037109375 434.9399719238281 580.0787963867188 435.22998046875 578.3388061523438 435.22998046875 C 575.8521118164062 435.22998046875 573.9487915039062 434.47662353515625 572.6287841796875 432.969970703125 C 571.3021240234375 431.4566345214844 570.6387939453125 429.28662109375 570.6387939453125 426.4599609375 C 570.6387939453125 424.6799621582031 570.9654541015625 423.1199645996094 571.6187744140625 421.77996826171875 C 572.2654418945312 420.4399719238281 573.1954345703125 419.40997314453125 574.4087524414062 418.6899719238281 C 575.6221313476562 417.97662353515625 577.0454711914062 417.6199645996094 578.6787719726562 417.6199645996094 C 580.345458984375 417.6199645996094 582.018798828125 418.0233154296875 583.6987915039062 418.8299560546875 L 582.52880859375 421.77996826171875 C 581.8887939453125 421.4732971191406 581.2421264648438 421.2066345214844 580.5888061523438 420.97998046875 C 579.942138671875 420.7532958984375 579.305419921875 420.6399841308594 578.6787719726562 420.6399841308594 ZM 594.7413330078125 434.9999694824219 L 594.0413208007812 433.219970703125 L 593.9512939453125 433.219970703125 C 593.351318359375 433.97998046875 592.7313232421875 434.5032958984375 592.09130859375 434.78997802734375 C 591.4580078125 435.08331298828125 590.6279907226562 435.22998046875 589.601318359375 435.22998046875 C 588.3479614257812 435.22998046875 587.3579711914062 434.873291015625 586.63134765625 434.15997314453125 C 585.9113159179688 433.4399719238281 585.5513305664062 432.4166259765625 585.5513305664062 431.0899658203125 C 585.5513305664062 429.6966247558594 586.0379638671875 428.66998291015625 587.0112915039062 428.0099792480469 C 587.9846801757812 427.3499755859375 589.4512939453125 426.9833068847656 591.4113159179688 426.90997314453125 L 593.6813354492188 426.8399658203125 L 593.6813354492188 426.26995849609375 C 593.6813354492188 424.94329833984375 593.0013427734375 424.27996826171875 591.6412963867188 424.27996826171875 C 590.5946655273438 424.27996826171875 589.3646240234375 424.5966491699219 587.9512939453125 425.22998046875 L 586.7713012695312 422.8099670410156 C 588.2780151367188 422.0233154296875 589.947998046875 421.6299743652344 591.7813110351562 421.6299743652344 C 593.5413208007812 421.6299743652344 594.8912963867188 422.0133056640625 595.831298828125 422.77996826171875 C 596.7646484375 423.546630859375 597.2313232421875 424.7099609375 597.2313232421875 426.26995849609375 L 597.2313232421875 434.9999694824219 L 594.7413330078125 434.9999694824219 M 593.6813354492188 428.9299621582031 L 592.3013305664062 428.97998046875 C 591.2612915039062 429.0066223144531 590.4879760742188 429.19329833984375 589.9813232421875 429.53997802734375 C 589.4746704101562 429.8799743652344 589.2213134765625 430.4032897949219 589.2213134765625 431.1099548339844 C 589.2213134765625 432.11663818359375 589.7979736328125 432.6199645996094 590.9512939453125 432.6199645996094 C 591.7780151367188 432.6199645996094 592.4413452148438 432.38330078125 592.9413452148438 431.90997314453125 C 593.4346313476562 431.4299621582031 593.6813354492188 430.796630859375 593.6813354492188 430.0099792480469 L 593.6813354492188 428.9299621582031 ZM 608.2274780273438 421.64996337890625 C 608.7074584960938 421.64996337890625 609.1074829101562 421.6866455078125 609.427490234375 421.7599792480469 L 609.16748046875 425.1099548339844 C 608.8741455078125 425.02996826171875 608.5208129882812 424.9899597167969 608.1074829101562 424.9899597167969 C 606.9674682617188 424.9899597167969 606.0774536132812 425.2832946777344 605.4375 425.8699645996094 C 604.8041381835938 426.4566345214844 604.4874877929688 427.2766418457031 604.4874877929688 428.3299560546875 L 604.4874877929688 434.9999694824219 L 600.91748046875 434.9999694824219 L 600.91748046875 421.89996337890625 L 603.6174926757812 421.89996337890625 L 604.1474609375 424.0999755859375 L 604.3274536132812 424.0999755859375 C 604.7274780273438 423.36663818359375 605.274169921875 422.7766418457031 605.9674682617188 422.3299560546875 C 606.6608276367188 421.87664794921875 607.4141235351562 421.64996337890625 608.2274780273438 421.64996337890625 ZM 617.235595703125 424.1999816894531 C 616.4755859375 424.1999816894531 615.8822631835938 424.4399719238281 615.4556274414062 424.91998291015625 C 615.0289306640625 425.39996337890625 614.7822875976562 426.0799560546875 614.7156372070312 426.9599609375 L 619.735595703125 426.9599609375 C 619.7156372070312 426.0799560546875 619.485595703125 425.39996337890625 619.0455932617188 424.91998291015625 C 618.5989379882812 424.4399719238281 617.99560546875 424.1999816894531 617.235595703125 424.1999816894531 M 617.735595703125 435.22998046875 C 615.6289672851562 435.22998046875 613.9822998046875 434.64996337890625 612.7955932617188 433.4899597167969 C 611.6089477539062 432.32330322265625 611.015625 430.6733093261719 611.015625 428.53997802734375 C 611.015625 426.3466491699219 611.562255859375 424.64996337890625 612.6555786132812 423.4499816894531 C 613.755615234375 422.2499694824219 615.275634765625 421.64996337890625 617.2156372070312 421.64996337890625 C 619.062255859375 421.64996337890625 620.5022583007812 422.1766357421875 621.5355834960938 423.22998046875 C 622.5689697265625 424.28997802734375 623.0856323242188 425.7499694824219 623.0856323242188 427.6099548339844 L 623.0856323242188 429.3399658203125 L 614.6356201171875 429.3399658203125 C 614.6755981445312 430.3533020019531 614.9755859375 431.1466369628906 615.5355834960938 431.719970703125 C 616.102294921875 432.28662109375 616.8922729492188 432.5699768066406 617.9055786132812 432.5699768066406 C 618.6922607421875 432.5699768066406 619.43896484375 432.4899597167969 620.1456298828125 432.3299560546875 C 620.8455810546875 432.1632995605469 621.5789184570312 431.89996337890625 622.3455810546875 431.53997802734375 L 622.3455810546875 434.3099670410156 C 621.7189331054688 434.623291015625 621.05224609375 434.85662841796875 620.3455810546875 435.0099792480469 C 619.6322631835938 435.1566467285156 618.7622680664062 435.22998046875 617.735595703125 435.22998046875 ZM 642.6187744140625 430.2399597167969 C 642.6187744140625 431.78662109375 642.0620727539062 433.0066223144531 640.94873046875 433.89996337890625 C 639.83544921875 434.78662109375 638.285400390625 435.22998046875 636.2987670898438 435.22998046875 C 634.4721069335938 435.22998046875 632.8554077148438 434.8866271972656 631.44873046875 434.1999816894531 L 631.44873046875 430.8299560546875 C 632.6087646484375 431.3432922363281 633.5887451171875 431.7066345214844 634.3887329101562 431.91998291015625 C 635.1887817382812 432.12664794921875 635.9187622070312 432.22998046875 636.5787353515625 432.22998046875 C 637.3787841796875 432.22998046875 637.9920654296875 432.0799560546875 638.4187622070312 431.77996826171875 C 638.8453979492188 431.4732971191406 639.0587768554688 431.01995849609375 639.0587768554688 430.41998291015625 C 639.0587768554688 430.0799560546875 638.9653930664062 429.77996826171875 638.7787475585938 429.51995849609375 C 638.58544921875 429.2599792480469 638.3087768554688 429.0099792480469 637.94873046875 428.76995849609375 C 637.5820922851562 428.5233154296875 636.8421020507812 428.1366271972656 635.728759765625 427.6099548339844 C 634.6820678710938 427.11663818359375 633.8954467773438 426.643310546875 633.3687744140625 426.1899719238281 C 632.8487548828125 425.73663330078125 632.4320678710938 425.2099609375 632.1187744140625 424.6099548339844 C 631.805419921875 424.0032958984375 631.6487426757812 423.2999572753906 631.6487426757812 422.4999694824219 C 631.6487426757812 420.97998046875 632.162109375 419.78662109375 633.1887817382812 418.91998291015625 C 634.2153930664062 418.0533142089844 635.6354370117188 417.6199645996094 637.44873046875 417.6199645996094 C 638.3421020507812 417.6199645996094 639.1920776367188 417.72662353515625 639.998779296875 417.9399719238281 C 640.805419921875 418.1466369628906 641.652099609375 418.44329833984375 642.5387573242188 418.8299560546875 L 641.3687744140625 421.64996337890625 C 640.44873046875 421.2766418457031 639.6920776367188 421.0166320800781 639.0987548828125 420.8699645996094 C 638.498779296875 420.7166442871094 637.9087524414062 420.6399841308594 637.3287353515625 420.6399841308594 C 636.64208984375 420.6399841308594 636.1154174804688 420.7999572753906 635.748779296875 421.1199645996094 C 635.382080078125 421.4466247558594 635.19873046875 421.86663818359375 635.19873046875 422.3799743652344 C 635.19873046875 422.6999816894531 635.2720947265625 422.97998046875 635.4187622070312 423.219970703125 C 635.5720825195312 423.45330810546875 635.8087768554688 423.68328857421875 636.1287841796875 423.90997314453125 C 636.4554443359375 424.1299743652344 637.2254028320312 424.52996826171875 638.4387817382812 425.1099548339844 C 640.0387573242188 425.87664794921875 641.1354370117188 426.643310546875 641.728759765625 427.40997314453125 C 642.3220825195312 428.18328857421875 642.6187744140625 429.12664794921875 642.6187744140625 430.2399597167969 ZM 652.6372680664062 435.22998046875 C 651.0972900390625 435.22998046875 649.8905639648438 434.6733093261719 649.0172729492188 433.5599670410156 L 648.8272705078125 433.5599670410156 C 648.9539184570312 434.6532897949219 649.0172729492188 435.28662109375 649.0172729492188 435.4599609375 L 649.0172729492188 440.76995849609375 L 645.447265625 440.76995849609375 L 645.447265625 421.89996337890625 L 648.3472900390625 421.89996337890625 L 648.8572387695312 423.5999755859375 L 649.0172729492188 423.5999755859375 C 649.8505859375 422.2999572753906 651.0872802734375 421.64996337890625 652.7272338867188 421.64996337890625 C 654.27392578125 421.64996337890625 655.4872436523438 422.2499694824219 656.3672485351562 423.4499816894531 C 657.2406005859375 424.643310546875 657.67724609375 426.3033142089844 657.67724609375 428.4299621582031 C 657.67724609375 429.82330322265625 657.4705810546875 431.03662109375 657.0572509765625 432.0699768066406 C 656.6505737304688 433.1033020019531 656.0672607421875 433.8899841308594 655.3072509765625 434.4299621582031 C 654.553955078125 434.96331787109375 653.6639404296875 435.22998046875 652.6372680664062 435.22998046875 M 651.5872802734375 424.5099792480469 C 650.7006225585938 424.5099792480469 650.053955078125 424.7832946777344 649.6472778320312 425.3299560546875 C 649.2406005859375 425.8699645996094 649.0305786132812 426.7666320800781 649.0172729492188 428.01995849609375 L 649.0172729492188 428.39996337890625 C 649.0172729492188 429.806640625 649.2272338867188 430.816650390625 649.6472778320312 431.4299621582031 C 650.0606079101562 432.03662109375 650.7205810546875 432.3399658203125 651.6272583007812 432.3399658203125 C 653.2272338867188 432.3399658203125 654.0272827148438 431.01995849609375 654.0272827148438 428.3799743652344 C 654.0272827148438 427.0932922363281 653.83056640625 426.12664794921875 653.437255859375 425.47998046875 C 653.0439453125 424.83331298828125 652.42724609375 424.5099792480469 651.5872802734375 424.5099792480469 ZM 672.7255859375 434.9999694824219 L 669.1456298828125 434.9999694824219 L 669.1456298828125 427.3499755859375 C 669.1456298828125 425.4566345214844 668.4456176757812 424.5099792480469 667.0455932617188 424.5099792480469 C 666.0455932617188 424.5099792480469 665.322265625 424.8499755859375 664.8756103515625 425.52996826171875 C 664.428955078125 426.2099609375 664.2056274414062 427.31329345703125 664.2056274414062 428.8399658203125 L 664.2056274414062 434.9999694824219 L 660.6356201171875 434.9999694824219 L 660.6356201171875 416.76995849609375 L 664.2056274414062 416.76995849609375 L 664.2056274414062 420.47998046875 C 664.2056274414062 420.7666320800781 664.178955078125 421.4466247558594 664.1256103515625 422.51995849609375 L 664.0455932617188 423.5699768066406 L 664.2255859375 423.5699768066406 C 665.025634765625 422.28997802734375 666.2922973632812 421.64996337890625 668.025634765625 421.64996337890625 C 669.5656127929688 421.64996337890625 670.7322998046875 422.06329345703125 671.525634765625 422.8899841308594 C 672.3256225585938 423.7232971191406 672.7255859375 424.9132995605469 672.7255859375 426.4599609375 L 672.7255859375 434.9999694824219 ZM 681.8280639648438 424.1999816894531 C 681.0680541992188 424.1999816894531 680.4747314453125 424.4399719238281 680.048095703125 424.91998291015625 C 679.6213989257812 425.39996337890625 679.374755859375 426.0799560546875 679.30810546875 426.9599609375 L 684.3280639648438 426.9599609375 C 684.30810546875 426.0799560546875 684.0780639648438 425.39996337890625 683.6380615234375 424.91998291015625 C 683.19140625 424.4399719238281 682.5880737304688 424.1999816894531 681.8280639648438 424.1999816894531 M 682.3280639648438 435.22998046875 C 680.221435546875 435.22998046875 678.5747680664062 434.64996337890625 677.3880615234375 433.4899597167969 C 676.201416015625 432.32330322265625 675.6080932617188 430.6733093261719 675.6080932617188 428.53997802734375 C 675.6080932617188 426.3466491699219 676.1547241210938 424.64996337890625 677.248046875 423.4499816894531 C 678.3480834960938 422.2499694824219 679.8681030273438 421.64996337890625 681.80810546875 421.64996337890625 C 683.6547241210938 421.64996337890625 685.0947265625 422.1766357421875 686.1280517578125 423.22998046875 C 687.1614379882812 424.28997802734375 687.6781005859375 425.7499694824219 687.6781005859375 427.6099548339844 L 687.6781005859375 429.3399658203125 L 679.2280883789062 429.3399658203125 C 679.26806640625 430.3533020019531 679.5680541992188 431.1466369628906 680.1280517578125 431.719970703125 C 680.6947631835938 432.28662109375 681.4847412109375 432.5699768066406 682.498046875 432.5699768066406 C 683.2847290039062 432.5699768066406 684.0314331054688 432.4899597167969 684.7380981445312 432.3299560546875 C 685.4380493164062 432.1632995605469 686.17138671875 431.89996337890625 686.9380493164062 431.53997802734375 L 686.9380493164062 434.3099670410156 C 686.3114013671875 434.623291015625 685.6447143554688 434.85662841796875 684.9380493164062 435.0099792480469 C 684.2247314453125 435.1566467285156 683.354736328125 435.22998046875 682.3280639648438 435.22998046875 ZM 697.8975830078125 421.64996337890625 C 698.3775634765625 421.64996337890625 698.777587890625 421.6866455078125 699.0975952148438 421.7599792480469 L 698.8375854492188 425.1099548339844 C 698.5442504882812 425.02996826171875 698.19091796875 424.9899597167969 697.777587890625 424.9899597167969 C 696.6375732421875 424.9899597167969 695.74755859375 425.2832946777344 695.1076049804688 425.8699645996094 C 694.4742431640625 426.4566345214844 694.1575927734375 427.2766418457031 694.1575927734375 428.3299560546875 L 694.1575927734375 434.9999694824219 L 690.5875854492188 434.9999694824219 L 690.5875854492188 421.89996337890625 L 693.28759765625 421.89996337890625 L 693.8175659179688 424.0999755859375 L 693.99755859375 424.0999755859375 C 694.3975830078125 423.36663818359375 694.9442749023438 422.7766418457031 695.6375732421875 422.3299560546875 C 696.3309326171875 421.87664794921875 697.084228515625 421.64996337890625 697.8975830078125 421.64996337890625 ZM 706.906982421875 424.1999816894531 C 706.14697265625 424.1999816894531 705.5536499023438 424.4399719238281 705.1270141601562 424.91998291015625 C 704.7003173828125 425.39996337890625 704.4536743164062 426.0799560546875 704.3870239257812 426.9599609375 L 709.406982421875 426.9599609375 C 709.3870239257812 426.0799560546875 709.156982421875 425.39996337890625 708.7169799804688 424.91998291015625 C 708.2703247070312 424.4399719238281 707.6669921875 424.1999816894531 706.906982421875 424.1999816894531 M 707.406982421875 435.22998046875 C 705.3003540039062 435.22998046875 703.6536865234375 434.64996337890625 702.4669799804688 433.4899597167969 C 701.2803344726562 432.32330322265625 700.68701171875 430.6733093261719 700.68701171875 428.53997802734375 C 700.68701171875 426.3466491699219 701.233642578125 424.64996337890625 702.3269653320312 423.4499816894531 C 703.427001953125 422.2499694824219 704.947021484375 421.64996337890625 706.8870239257812 421.64996337890625 C 708.733642578125 421.64996337890625 710.1736450195312 422.1766357421875 711.2069702148438 423.22998046875 C 712.2403564453125 424.28997802734375 712.7570190429688 425.7499694824219 712.7570190429688 427.6099548339844 L 712.7570190429688 429.3399658203125 L 704.3070068359375 429.3399658203125 C 704.3469848632812 430.3533020019531 704.64697265625 431.1466369628906 705.2069702148438 431.719970703125 C 705.773681640625 432.28662109375 706.5636596679688 432.5699768066406 707.5769653320312 432.5699768066406 C 708.3636474609375 432.5699768066406 709.1103515625 432.4899597167969 709.8170166015625 432.3299560546875 C 710.5169677734375 432.1632995605469 711.2503051757812 431.89996337890625 712.0169677734375 431.53997802734375 L 712.0169677734375 434.3099670410156 C 711.3903198242188 434.623291015625 710.7236328125 434.85662841796875 710.0169677734375 435.0099792480469 C 709.3036499023438 435.1566467285156 708.4336547851562 435.22998046875 707.406982421875 435.22998046875 Z" transform="matrix(16.707469940185547, 0, 0, 16.707469940185547, -8649.0546875, -6772.83642578125)" style="fill: rgb(255, 255, 255); white-space: pre; color: rgb(245, 251, 255);"/><g transform="matrix(5.011528968811035, 5.014501094818116, -5.014501094818116, 5.011528968811035, 1149.2852915853332, -5562.301731282459)"><path d="M 562.5999755859375 646.9000244140625 L 545.5999755859375 629.9000244140625 L 518.7000122070312 656.7000122070312 L 491.8999938964844 629.9000244140625 L 474.8999938964844 646.9000244140625 L 501.70001220703125 673.7999877929688 L 474.8999938964844 700.5999755859375 L 491.8999938964844 717.5999755859375 L 518.7000122070312 690.7999877929688 L 545.5999755859375 717.5999755859375 L 562.5999755859375 700.5999755859375 L 535.7999877929688 673.7999877929688 Z" class="st0" style="fill: rgb(28, 184, 190);" transform="matrix(1, 0, 0, 1, 0, 0)"/></g><g transform="matrix(4.684173583984375, 4.7139015197753915, -4.7139015197753915, 4.684173583984375, 4636.950696858772, -8681.52536409496)"><g transform="matrix(1, 0, 0, 1, 0, 0)">
	<path class="st0" d="M 493.9 1456.9 L 472.7 1435.7 L 499.59999999999997 1408.8 L 472.7 1381.8999999999999 L 493.9 1360.6999999999998 L 520.8 1387.6 L 547.6999999999999 1360.6999999999998 L 568.9 1381.8999999999999 L 542 1408.8 L 568.9 1435.7 L 547.6999999999999 1456.9 L 520.8 1430 L 493.9 1456.9 Z M 520.7 1421.5 L 547.6 1448.4 L 560.4 1435.6000000000001 L 533.5 1408.7 L 560.4 1381.8 L 547.6 1369 L 520.7 1395.9 L 493.80000000000007 1369 L 481.00000000000006 1381.8 L 507.89783325195316 1408.007861328125 L 481.00000000000006 1435.6000000000001 L 493.80000000000007 1448.4 L 520.7 1421.5 Z" style="fill: rgb(255, 255, 255); fill-opacity: 1;"/>
</g></g><path style="fill: rgb(51, 51, 51); fill-opacity: 0.57; stroke: rgb(0, 0, 0); stroke-opacity: 1; stroke-width: 0; paint-order: fill;" d="M 218.33139038085938 368.9334411621094" transform="matrix(1, 0, 0, 1, 814.0473022460938, -269.2356262207031)"/><path style="fill: rgb(255, 255, 255); fill-opacity: 1; stroke: rgb(0, 0, 0); stroke-opacity: 1; stroke-width: 0; paint-order: fill;" d="M 620.9502563476562 259.1551818847656" transform="matrix(1, 0, 0, 1, 789.1906127929688, -85.6356201171875)"/></svg>