<?xml version="1.0" encoding="utf-8"?>
<svg id="master-artboard" viewBox="0 0 1832.9521484375 646.6246337890625" version="1.1" xmlns="http://www.w3.org/2000/svg" x="0px" y="0px" style="enable-background:new 0 0 1400 980;" width="1832.9521484375px" height="646.6246337890625px"><rect id="ee-background" x="0" y="0" width="1832.9521484375" height="646.6246337890625" style="fill: white; fill-opacity: 0; pointer-events: none;"/><path style="fill: rgb(212, 34, 28); fill-opacity: 1; stroke: rgb(0, 0, 0); stroke-opacity: 1; stroke-width: 0; paint-order: fill;" d="M 804.6558837890625 501.9896240234375 L 757.8668823242188 373.3199157714844 L 804.6558837890625 501.9896240234375 Z" transform="matrix(1, 0, 0, 1, 219.63589477539062, -195.3539581298828)"/><path style="fill: rgb(212, 34, 28); fill-opacity: 1; stroke: rgb(0, 0, 0); stroke-opacity: 1; stroke-width: 0; paint-order: fill;" d="M 659.9024658203125 317.75799560546875" transform="matrix(1, 0, 0, 1, 219.63589477539062, -195.3539581298828)"/><path d="M 578.6787719726562 420.6400146484375 C 577.3121337890625 420.6400146484375 576.2554321289062 421.15667724609375 575.5087890625 422.19000244140625 C 574.7554321289062 423.2166748046875 574.3787841796875 424.64666748046875 574.3787841796875 426.4800109863281 C 574.3787841796875 430.29998779296875 575.8121337890625 432.2099914550781 578.6787719726562 432.2099914550781 C 579.8854370117188 432.2099914550781 581.3421020507812 431.9100036621094 583.0487670898438 431.30999755859375 L 583.0487670898438 434.3599853515625 C 581.6488037109375 434.94000244140625 580.0787963867188 435.2300109863281 578.3388061523438 435.2300109863281 C 575.8521118164062 435.2300109863281 573.9487915039062 434.4766540527344 572.6287841796875 432.9700012207031 C 571.3021240234375 431.4566650390625 570.6387939453125 429.28668212890625 570.6387939453125 426.4599914550781 C 570.6387939453125 424.67999267578125 570.9654541015625 423.1199951171875 571.6187744140625 421.7799987792969 C 572.2654418945312 420.44000244140625 573.1954345703125 419.4100036621094 574.4087524414062 418.69000244140625 C 575.6221313476562 417.9766540527344 577.0454711914062 417.6199951171875 578.6787719726562 417.6199951171875 C 580.345458984375 417.6199951171875 582.018798828125 418.0233459472656 583.6987915039062 418.8299865722656 L 582.52880859375 421.7799987792969 C 581.8887939453125 421.47332763671875 581.2421264648438 421.2066650390625 580.5888061523438 420.9800109863281 C 579.942138671875 420.7533264160156 579.305419921875 420.6400146484375 578.6787719726562 420.6400146484375 ZM 594.7385864257812 435 L 594.03857421875 433.2200012207031 L 593.9485473632812 433.2200012207031 C 593.3485717773438 433.9800109863281 592.7285766601562 434.5033264160156 592.0885620117188 434.7900085449219 C 591.4552612304688 435.0833435058594 590.625244140625 435.2300109863281 589.5985717773438 435.2300109863281 C 588.34521484375 435.2300109863281 587.355224609375 434.8733215332031 586.6286010742188 434.1600036621094 C 585.9085693359375 433.44000244140625 585.548583984375 432.4166564941406 585.548583984375 431.0899963378906 C 585.548583984375 429.6966552734375 586.0352172851562 428.6700134277344 587.008544921875 428.010009765625 C 587.98193359375 427.3500061035156 589.4485473632812 426.98333740234375 591.4085693359375 426.9100036621094 L 593.6785888671875 426.8399963378906 L 593.6785888671875 426.2699890136719 C 593.6785888671875 424.9433288574219 592.9985961914062 424.2799987792969 591.6385498046875 424.2799987792969 C 590.5919189453125 424.2799987792969 589.3618774414062 424.5966796875 587.9485473632812 425.2300109863281 L 586.7685546875 422.80999755859375 C 588.2752685546875 422.0233459472656 589.9452514648438 421.6300048828125 591.778564453125 421.6300048828125 C 593.53857421875 421.6300048828125 594.8885498046875 422.0133361816406 595.8285522460938 422.7799987792969 C 596.7619018554688 423.5466613769531 597.2285766601562 424.7099914550781 597.2285766601562 426.2699890136719 L 597.2285766601562 435 L 594.7385864257812 435 M 593.6785888671875 428.92999267578125 L 592.298583984375 428.9800109863281 C 591.258544921875 429.00665283203125 590.4852294921875 429.1933288574219 589.9785766601562 429.5400085449219 C 589.471923828125 429.8800048828125 589.2185668945312 430.4033203125 589.2185668945312 431.1099853515625 C 589.2185668945312 432.1166687011719 589.7952270507812 432.6199951171875 590.9485473632812 432.6199951171875 C 591.7752685546875 432.6199951171875 592.4385986328125 432.3833312988281 592.9385986328125 431.9100036621094 C 593.431884765625 431.42999267578125 593.6785888671875 430.7966613769531 593.6785888671875 430.010009765625 L 593.6785888671875 428.92999267578125 ZM 608.2237548828125 421.6499938964844 C 608.7037353515625 421.6499938964844 609.103759765625 421.6866760253906 609.4237670898438 421.760009765625 L 609.1637573242188 425.1099853515625 C 608.8704223632812 425.0299987792969 608.51708984375 424.989990234375 608.103759765625 424.989990234375 C 606.9637451171875 424.989990234375 606.07373046875 425.2833251953125 605.4337768554688 425.8699951171875 C 604.8004150390625 426.4566650390625 604.4837646484375 427.27667236328125 604.4837646484375 428.3299865722656 L 604.4837646484375 435 L 600.9137573242188 435 L 600.9137573242188 421.8999938964844 L 603.61376953125 421.8999938964844 L 604.1437377929688 424.1000061035156 L 604.32373046875 424.1000061035156 C 604.7237548828125 423.3666687011719 605.2704467773438 422.77667236328125 605.9637451171875 422.3299865722656 C 606.6571044921875 421.8766784667969 607.410400390625 421.6499938964844 608.2237548828125 421.6499938964844 ZM 617.2318725585938 424.20001220703125 C 616.4718627929688 424.20001220703125 615.8785400390625 424.44000244140625 615.451904296875 424.9200134277344 C 615.0252075195312 425.3999938964844 614.778564453125 426.0799865722656 614.7119140625 426.9599914550781 L 619.7318725585938 426.9599914550781 C 619.7119140625 426.0799865722656 619.4818725585938 425.3999938964844 619.0418701171875 424.9200134277344 C 618.59521484375 424.44000244140625 617.9918823242188 424.20001220703125 617.2318725585938 424.20001220703125 M 617.7318725585938 435.2300109863281 C 615.625244140625 435.2300109863281 613.9785766601562 434.6499938964844 612.7918701171875 433.489990234375 C 611.605224609375 432.3233337402344 611.0119018554688 430.67333984375 611.0119018554688 428.5400085449219 C 611.0119018554688 426.3466796875 611.5585327148438 424.6499938964844 612.65185546875 423.45001220703125 C 613.7518920898438 422.25 615.2719116210938 421.6499938964844 617.2119140625 421.6499938964844 C 619.0585327148438 421.6499938964844 620.49853515625 422.1766662597656 621.5318603515625 423.2300109863281 C 622.5652465820312 424.2900085449219 623.0819091796875 425.75 623.0819091796875 427.6099853515625 L 623.0819091796875 429.3399963378906 L 614.6318969726562 429.3399963378906 C 614.671875 430.35333251953125 614.9718627929688 431.14666748046875 615.5318603515625 431.7200012207031 C 616.0985717773438 432.2866516113281 616.8885498046875 432.57000732421875 617.90185546875 432.57000732421875 C 618.6885375976562 432.57000732421875 619.4352416992188 432.489990234375 620.1419067382812 432.3299865722656 C 620.8418579101562 432.163330078125 621.5751953125 431.8999938964844 622.3418579101562 431.5400085449219 L 622.3418579101562 434.30999755859375 C 621.7152099609375 434.6233215332031 621.0485229492188 434.8566589355469 620.3418579101562 435.010009765625 C 619.6285400390625 435.15667724609375 618.758544921875 435.2300109863281 617.7318725585938 435.2300109863281 ZM 642.615966796875 430.239990234375 C 642.615966796875 431.7866516113281 642.0592651367188 433.00665283203125 640.9459228515625 433.8999938964844 C 639.8326416015625 434.7866516113281 638.2825927734375 435.2300109863281 636.2959594726562 435.2300109863281 C 634.4692993164062 435.2300109863281 632.8526000976562 434.88665771484375 631.4459228515625 434.20001220703125 L 631.4459228515625 430.8299865722656 C 632.60595703125 431.34332275390625 633.5859375 431.7066650390625 634.3859252929688 431.9200134277344 C 635.1859741210938 432.1266784667969 635.9159545898438 432.2300109863281 636.575927734375 432.2300109863281 C 637.3759765625 432.2300109863281 637.9892578125 432.0799865722656 638.4159545898438 431.7799987792969 C 638.8425903320312 431.47332763671875 639.0559692382812 431.0199890136719 639.0559692382812 430.4200134277344 C 639.0559692382812 430.0799865722656 638.9625854492188 429.7799987792969 638.7759399414062 429.5199890136719 C 638.5826416015625 429.260009765625 638.3059692382812 429.010009765625 637.9459228515625 428.7699890136719 C 637.5792846679688 428.5233459472656 636.8392944335938 428.13665771484375 635.7259521484375 427.6099853515625 C 634.6792602539062 427.1166687011719 633.8926391601562 426.6433410644531 633.365966796875 426.19000244140625 C 632.845947265625 425.7366638183594 632.4292602539062 425.2099914550781 632.115966796875 424.6099853515625 C 631.8026123046875 424.0033264160156 631.6459350585938 423.29998779296875 631.6459350585938 422.5 C 631.6459350585938 420.9800109863281 632.1593017578125 419.78668212890625 633.1859741210938 418.9200134277344 C 634.2125854492188 418.0533447265625 635.6326293945312 417.6199951171875 637.4459228515625 417.6199951171875 C 638.3392944335938 417.6199951171875 639.1892700195312 417.7266540527344 639.9959716796875 417.94000244140625 C 640.8026123046875 418.14666748046875 641.6492919921875 418.4433288574219 642.5359497070312 418.8299865722656 L 641.365966796875 421.6499938964844 C 640.4459228515625 421.27667236328125 639.6892700195312 421.01666259765625 639.095947265625 420.8699951171875 C 638.4959716796875 420.7166748046875 637.9059448242188 420.6400146484375 637.325927734375 420.6400146484375 C 636.6392822265625 420.6400146484375 636.1126098632812 420.79998779296875 635.7459716796875 421.1199951171875 C 635.3792724609375 421.4466552734375 635.1959228515625 421.8666687011719 635.1959228515625 422.3800048828125 C 635.1959228515625 422.70001220703125 635.269287109375 422.9800109863281 635.4159545898438 423.2200012207031 C 635.5692749023438 423.4533386230469 635.8059692382812 423.6833190917969 636.1259765625 423.9100036621094 C 636.45263671875 424.1300048828125 637.2225952148438 424.5299987792969 638.4359741210938 425.1099853515625 C 640.0359497070312 425.8766784667969 641.1326293945312 426.6433410644531 641.7259521484375 427.4100036621094 C 642.3192749023438 428.1833190917969 642.615966796875 429.1266784667969 642.615966796875 430.239990234375 ZM 652.6336669921875 435.2300109863281 C 651.0936889648438 435.2300109863281 649.886962890625 434.67333984375 649.013671875 433.55999755859375 L 648.8236694335938 433.55999755859375 C 648.9503173828125 434.6533203125 649.013671875 435.2866516113281 649.013671875 435.4599914550781 L 649.013671875 440.7699890136719 L 645.4436645507812 440.7699890136719 L 645.4436645507812 421.8999938964844 L 648.3436889648438 421.8999938964844 L 648.8536376953125 423.6000061035156 L 649.013671875 423.6000061035156 C 649.8469848632812 422.29998779296875 651.0836791992188 421.6499938964844 652.7236328125 421.6499938964844 C 654.2703247070312 421.6499938964844 655.483642578125 422.25 656.3636474609375 423.45001220703125 C 657.2369995117188 424.6433410644531 657.6736450195312 426.3033447265625 657.6736450195312 428.42999267578125 C 657.6736450195312 429.8233337402344 657.4669799804688 431.0366516113281 657.0536499023438 432.07000732421875 C 656.64697265625 433.10333251953125 656.0636596679688 433.8900146484375 655.3036499023438 434.42999267578125 C 654.5503540039062 434.9633483886719 653.6603393554688 435.2300109863281 652.6336669921875 435.2300109863281 M 651.5836791992188 424.510009765625 C 650.697021484375 424.510009765625 650.0503540039062 424.7833251953125 649.6436767578125 425.3299865722656 C 649.2369995117188 425.8699951171875 649.0269775390625 426.76666259765625 649.013671875 428.0199890136719 L 649.013671875 428.3999938964844 C 649.013671875 429.8066711425781 649.2236328125 430.8166809082031 649.6436767578125 431.42999267578125 C 650.0570068359375 432.0366516113281 650.7169799804688 432.3399963378906 651.6236572265625 432.3399963378906 C 653.2236328125 432.3399963378906 654.023681640625 431.0199890136719 654.023681640625 428.3800048828125 C 654.023681640625 427.09332275390625 653.8269653320312 426.1266784667969 653.4336547851562 425.4800109863281 C 653.0403442382812 424.8333435058594 652.4236450195312 424.510009765625 651.5836791992188 424.510009765625 ZM 672.7186889648438 435 L 669.1387329101562 435 L 669.1387329101562 427.3500061035156 C 669.1387329101562 425.4566650390625 668.438720703125 424.510009765625 667.0386962890625 424.510009765625 C 666.0386962890625 424.510009765625 665.3153686523438 424.8500061035156 664.8687133789062 425.5299987792969 C 664.4220581054688 426.2099914550781 664.19873046875 427.3133239746094 664.19873046875 428.8399963378906 L 664.19873046875 435 L 660.6287231445312 435 L 660.6287231445312 416.7699890136719 L 664.19873046875 416.7699890136719 L 664.19873046875 420.4800109863281 C 664.19873046875 420.76666259765625 664.1720581054688 421.4466552734375 664.1187133789062 422.5199890136719 L 664.0386962890625 423.57000732421875 L 664.2186889648438 423.57000732421875 C 665.0187377929688 422.2900085449219 666.285400390625 421.6499938964844 668.0187377929688 421.6499938964844 C 669.5587158203125 421.6499938964844 670.7254028320312 422.0633239746094 671.5187377929688 422.8900146484375 C 672.3187255859375 423.72332763671875 672.7186889648438 424.913330078125 672.7186889648438 426.4599914550781 L 672.7186889648438 435 ZM 681.8214111328125 424.20001220703125 C 681.0614013671875 424.20001220703125 680.4680786132812 424.44000244140625 680.0414428710938 424.9200134277344 C 679.61474609375 425.3999938964844 679.3681030273438 426.0799865722656 679.3014526367188 426.9599914550781 L 684.3214111328125 426.9599914550781 C 684.3014526367188 426.0799865722656 684.0714111328125 425.3999938964844 683.6314086914062 424.9200134277344 C 683.1847534179688 424.44000244140625 682.5814208984375 424.20001220703125 681.8214111328125 424.20001220703125 M 682.3214111328125 435.2300109863281 C 680.2147827148438 435.2300109863281 678.568115234375 434.6499938964844 677.3814086914062 433.489990234375 C 676.1947631835938 432.3233337402344 675.6014404296875 430.67333984375 675.6014404296875 428.5400085449219 C 675.6014404296875 426.3466796875 676.1480712890625 424.6499938964844 677.2413940429688 423.45001220703125 C 678.3414306640625 422.25 679.8614501953125 421.6499938964844 681.8014526367188 421.6499938964844 C 683.6480712890625 421.6499938964844 685.0880737304688 422.1766662597656 686.1213989257812 423.2300109863281 C 687.15478515625 424.2900085449219 687.6714477539062 425.75 687.6714477539062 427.6099853515625 L 687.6714477539062 429.3399963378906 L 679.221435546875 429.3399963378906 C 679.2614135742188 430.35333251953125 679.5614013671875 431.14666748046875 680.1213989257812 431.7200012207031 C 680.6881103515625 432.2866516113281 681.4780883789062 432.57000732421875 682.4913940429688 432.57000732421875 C 683.278076171875 432.57000732421875 684.0247802734375 432.489990234375 684.7314453125 432.3299865722656 C 685.431396484375 432.163330078125 686.1647338867188 431.8999938964844 686.931396484375 431.5400085449219 L 686.931396484375 434.30999755859375 C 686.3047485351562 434.6233215332031 685.6380615234375 434.8566589355469 684.931396484375 435.010009765625 C 684.2180786132812 435.15667724609375 683.3480834960938 435.2300109863281 682.3214111328125 435.2300109863281 ZM 697.8901977539062 421.6499938964844 C 698.3701782226562 421.6499938964844 698.7702026367188 421.6866760253906 699.0902099609375 421.760009765625 L 698.8302001953125 425.1099853515625 C 698.536865234375 425.0299987792969 698.1835327148438 424.989990234375 697.7702026367188 424.989990234375 C 696.6301879882812 424.989990234375 695.7401733398438 425.2833251953125 695.1002197265625 425.8699951171875 C 694.4668579101562 426.4566650390625 694.1502075195312 427.27667236328125 694.1502075195312 428.3299865722656 L 694.1502075195312 435 L 690.5802001953125 435 L 690.5802001953125 421.8999938964844 L 693.2802124023438 421.8999938964844 L 693.8101806640625 424.1000061035156 L 693.9901733398438 424.1000061035156 C 694.3901977539062 423.3666687011719 694.9368896484375 422.77667236328125 695.6301879882812 422.3299865722656 C 696.3235473632812 421.8766784667969 697.0768432617188 421.6499938964844 697.8901977539062 421.6499938964844 ZM 706.8983154296875 424.20001220703125 C 706.1383056640625 424.20001220703125 705.5449829101562 424.44000244140625 705.1183471679688 424.9200134277344 C 704.691650390625 425.3999938964844 704.4450073242188 426.0799865722656 704.3783569335938 426.9599914550781 L 709.3983154296875 426.9599914550781 C 709.3783569335938 426.0799865722656 709.1483154296875 425.3999938964844 708.7083129882812 424.9200134277344 C 708.2616577148438 424.44000244140625 707.6583251953125 424.20001220703125 706.8983154296875 424.20001220703125 M 707.3983154296875 435.2300109863281 C 705.2916870117188 435.2300109863281 703.64501953125 434.6499938964844 702.4583129882812 433.489990234375 C 701.2716674804688 432.3233337402344 700.6783447265625 430.67333984375 700.6783447265625 428.5400085449219 C 700.6783447265625 426.3466796875 701.2249755859375 424.6499938964844 702.3182983398438 423.45001220703125 C 703.4183349609375 422.25 704.9383544921875 421.6499938964844 706.8783569335938 421.6499938964844 C 708.7249755859375 421.6499938964844 710.1649780273438 422.1766662597656 711.1983032226562 423.2300109863281 C 712.231689453125 424.2900085449219 712.7483520507812 425.75 712.7483520507812 427.6099853515625 L 712.7483520507812 429.3399963378906 L 704.29833984375 429.3399963378906 C 704.3383178710938 430.35333251953125 704.6383056640625 431.14666748046875 705.1983032226562 431.7200012207031 C 705.7650146484375 432.2866516113281 706.5549926757812 432.57000732421875 707.5682983398438 432.57000732421875 C 708.35498046875 432.57000732421875 709.1016845703125 432.489990234375 709.808349609375 432.3299865722656 C 710.50830078125 432.163330078125 711.2416381835938 431.8999938964844 712.00830078125 431.5400085449219 L 712.00830078125 434.30999755859375 C 711.3816528320312 434.6233215332031 710.7149658203125 434.8566589355469 710.00830078125 435.010009765625 C 709.2949829101562 435.15667724609375 708.4249877929688 435.2300109863281 707.3983154296875 435.2300109863281 Z" transform="matrix(8.822698593139648, 0, 0, 8.822698593139648, -4514.3828125, -3502.478271484375)" style="fill: rgb(255, 255, 255); white-space: pre; color: rgb(245, 251, 255);"/><g transform="matrix(3.150403499603272, 3.152271986007691, -3.152271986007691, 3.150403499603272, 715.2684136327438, -3501.9027933640123)"><path d="M 562.5999755859375 646.9000244140625 L 545.5999755859375 629.9000244140625 L 518.7000122070312 656.7000122070312 L 491.8999938964844 629.9000244140625 L 474.8999938964844 646.9000244140625 L 501.70001220703125 673.7999877929688 L 474.8999938964844 700.5999755859375 L 491.8999938964844 717.5999755859375 L 518.7000122070312 690.7999877929688 L 545.5999755859375 717.5999755859375 L 562.5999755859375 700.5999755859375 L 535.7999877929688 673.7999877929688 Z" class="st0" style="fill: rgb(28, 184, 190);" transform="matrix(1, 0, 0, 1, 0, 0)"/></g><g transform="matrix(2.94064474105835, 2.959307193756104, -2.959307193756104, 2.94064474105835, 2903.4380303319613, -5455.323935942137)"><g transform="matrix(1, 0, 0, 1, 0, 0)">
	<path class="st0" d="M 493.9 1456.9 L 472.7 1435.7 L 499.59999999999997 1408.8 L 472.7 1381.8999999999999 L 493.9 1360.6999999999998 L 520.8 1387.6 L 547.6999999999999 1360.6999999999998 L 568.9 1381.8999999999999 L 542 1408.8 L 568.9 1435.7 L 547.6999999999999 1456.9 L 520.8 1430 L 493.9 1456.9 Z M 520.7 1421.5 L 547.6 1448.4 L 560.4 1435.6000000000001 L 533.5 1408.7 L 560.4 1381.8 L 547.6 1369 L 520.7 1395.9 L 493.80000000000007 1369 L 481.00000000000006 1381.8 L 507.89783325195316 1408.007861328125 L 481.00000000000006 1435.6000000000001 L 493.80000000000007 1448.4 L 520.7 1421.5 Z" style="fill: rgb(255, 255, 255); fill-opacity: 1;"/>
</g></g><path style="fill: rgb(51, 51, 51); fill-opacity: 0.57; stroke: rgb(0, 0, 0); stroke-opacity: 1; stroke-width: 0; paint-order: fill;" d="M 218.33139038085938 368.9334411621094" transform="matrix(1, 0, 0, 1, 219.63589477539062, -195.3539581298828)"/><path style="fill: rgb(255, 255, 255); fill-opacity: 1; stroke: rgb(0, 0, 0); stroke-opacity: 1; stroke-width: 0; paint-order: fill;" d="M 620.9502563476562 259.1551818847656" transform="matrix(1, 0, 0, 1, 194.77920532226562, -11.753934860229492)"/></svg>