<?xml version="1.0" encoding="utf-8"?>
<svg id="master-artboard" viewBox="0 0 1797.690673828125 510.61480712890625" version="1.1" xmlns="http://www.w3.org/2000/svg" x="0px" y="0px" style="enable-background:new 0 0 1400 980;" width="1797.690673828125px" height="510.61480712890625px"><rect id="ee-background" x="0" y="0" width="1797.690673828125" height="510.61480712890625" style="fill: white; fill-opacity: 0; pointer-events: none;"/><path style="fill: rgb(212, 34, 28); fill-opacity: 1; stroke: rgb(0, 0, 0); stroke-opacity: 1; stroke-width: 0; paint-order: fill;" d="M 804.6558837890625 501.9896240234375 L 757.8668823242188 373.3199157714844 L 804.6558837890625 501.9896240234375 Z" transform="matrix(1, 0, 0, 1, 24.856666564941406, -183.60004425048828)"/><path style="fill: rgb(212, 34, 28); fill-opacity: 1; stroke: rgb(0, 0, 0); stroke-opacity: 1; stroke-width: 0; paint-order: fill;" d="M 659.9024658203125 317.75799560546875" transform="matrix(1, 0, 0, 1, 24.856666564941406, -183.60004425048828)"/><path d="M 578.6787719726562 420.6399841308594 C 577.3121337890625 420.6399841308594 576.2554321289062 421.1566467285156 575.5087890625 422.1899719238281 C 574.7554321289062 423.2166442871094 574.3787841796875 424.6466369628906 574.3787841796875 426.47998046875 C 574.3787841796875 430.2999572753906 575.8121337890625 432.2099609375 578.6787719726562 432.2099609375 C 579.8854370117188 432.2099609375 581.3421020507812 431.90997314453125 583.0487670898438 431.3099670410156 L 583.0487670898438 434.3599548339844 C 581.6488037109375 434.9399719238281 580.0787963867188 435.22998046875 578.3388061523438 435.22998046875 C 575.8521118164062 435.22998046875 573.9487915039062 434.47662353515625 572.6287841796875 432.969970703125 C 571.3021240234375 431.4566345214844 570.6387939453125 429.28662109375 570.6387939453125 426.4599609375 C 570.6387939453125 424.6799621582031 570.9654541015625 423.1199645996094 571.6187744140625 421.77996826171875 C 572.2654418945312 420.4399719238281 573.1954345703125 419.40997314453125 574.4087524414062 418.6899719238281 C 575.6221313476562 417.97662353515625 577.0454711914062 417.6199645996094 578.6787719726562 417.6199645996094 C 580.345458984375 417.6199645996094 582.018798828125 418.0233154296875 583.6987915039062 418.8299560546875 L 582.52880859375 421.77996826171875 C 581.8887939453125 421.4732971191406 581.2421264648438 421.2066345214844 580.5888061523438 420.97998046875 C 579.942138671875 420.7532958984375 579.305419921875 420.6399841308594 578.6787719726562 420.6399841308594 ZM 594.740478515625 434.9999694824219 L 594.0404663085938 433.219970703125 L 593.950439453125 433.219970703125 C 593.3504638671875 433.97998046875 592.73046875 434.5032958984375 592.0904541015625 434.78997802734375 C 591.4571533203125 435.08331298828125 590.6271362304688 435.22998046875 589.6004638671875 435.22998046875 C 588.3471069335938 435.22998046875 587.3571166992188 434.873291015625 586.6304931640625 434.15997314453125 C 585.9104614257812 433.4399719238281 585.5504760742188 432.4166259765625 585.5504760742188 431.0899658203125 C 585.5504760742188 429.6966247558594 586.037109375 428.66998291015625 587.0104370117188 428.0099792480469 C 587.9838256835938 427.3499755859375 589.450439453125 426.9833068847656 591.4104614257812 426.90997314453125 L 593.6804809570312 426.8399658203125 L 593.6804809570312 426.26995849609375 C 593.6804809570312 424.94329833984375 593.00048828125 424.27996826171875 591.6404418945312 424.27996826171875 C 590.5938110351562 424.27996826171875 589.36376953125 424.5966491699219 587.950439453125 425.22998046875 L 586.7704467773438 422.8099670410156 C 588.2771606445312 422.0233154296875 589.9471435546875 421.6299743652344 591.7804565429688 421.6299743652344 C 593.5404663085938 421.6299743652344 594.8904418945312 422.0133056640625 595.8304443359375 422.77996826171875 C 596.7637939453125 423.546630859375 597.23046875 424.7099609375 597.23046875 426.26995849609375 L 597.23046875 434.9999694824219 L 594.740478515625 434.9999694824219 M 593.6804809570312 428.9299621582031 L 592.3004760742188 428.97998046875 C 591.2604370117188 429.0066223144531 590.4871215820312 429.19329833984375 589.98046875 429.53997802734375 C 589.4738159179688 429.8799743652344 589.220458984375 430.4032897949219 589.220458984375 431.1099548339844 C 589.220458984375 432.11663818359375 589.797119140625 432.6199645996094 590.950439453125 432.6199645996094 C 591.7771606445312 432.6199645996094 592.4404907226562 432.38330078125 592.9404907226562 431.90997314453125 C 593.4337768554688 431.4299621582031 593.6804809570312 430.796630859375 593.6804809570312 430.0099792480469 L 593.6804809570312 428.9299621582031 ZM 608.22509765625 421.64996337890625 C 608.705078125 421.64996337890625 609.1051025390625 421.6866455078125 609.4251098632812 421.7599792480469 L 609.1651000976562 425.1099548339844 C 608.8717651367188 425.02996826171875 608.5184326171875 424.9899597167969 608.1051025390625 424.9899597167969 C 606.965087890625 424.9899597167969 606.0750732421875 425.2832946777344 605.4351196289062 425.8699645996094 C 604.8017578125 426.4566345214844 604.485107421875 427.2766418457031 604.485107421875 428.3299560546875 L 604.485107421875 434.9999694824219 L 600.9151000976562 434.9999694824219 L 600.9151000976562 421.89996337890625 L 603.6151123046875 421.89996337890625 L 604.1450805664062 424.0999755859375 L 604.3250732421875 424.0999755859375 C 604.72509765625 423.36663818359375 605.2717895507812 422.7766418457031 605.965087890625 422.3299560546875 C 606.658447265625 421.87664794921875 607.4117431640625 421.64996337890625 608.22509765625 421.64996337890625 ZM 617.233154296875 424.1999816894531 C 616.47314453125 424.1999816894531 615.8798217773438 424.4399719238281 615.4531860351562 424.91998291015625 C 615.0264892578125 425.39996337890625 614.7798461914062 426.0799560546875 614.7131958007812 426.9599609375 L 619.733154296875 426.9599609375 C 619.7131958007812 426.0799560546875 619.483154296875 425.39996337890625 619.0431518554688 424.91998291015625 C 618.5964965820312 424.4399719238281 617.9931640625 424.1999816894531 617.233154296875 424.1999816894531 M 617.733154296875 435.22998046875 C 615.6265258789062 435.22998046875 613.9798583984375 434.64996337890625 612.7931518554688 433.4899597167969 C 611.6065063476562 432.32330322265625 611.01318359375 430.6733093261719 611.01318359375 428.53997802734375 C 611.01318359375 426.3466491699219 611.559814453125 424.64996337890625 612.6531372070312 423.4499816894531 C 613.753173828125 422.2499694824219 615.273193359375 421.64996337890625 617.2131958007812 421.64996337890625 C 619.059814453125 421.64996337890625 620.4998168945312 422.1766357421875 621.5331420898438 423.22998046875 C 622.5665283203125 424.28997802734375 623.0831909179688 425.7499694824219 623.0831909179688 427.6099548339844 L 623.0831909179688 429.3399658203125 L 614.6331787109375 429.3399658203125 C 614.6731567382812 430.3533020019531 614.97314453125 431.1466369628906 615.5331420898438 431.719970703125 C 616.099853515625 432.28662109375 616.8898315429688 432.5699768066406 617.9031372070312 432.5699768066406 C 618.6898193359375 432.5699768066406 619.4365234375 432.4899597167969 620.1431884765625 432.3299560546875 C 620.8431396484375 432.1632995605469 621.5764770507812 431.89996337890625 622.3431396484375 431.53997802734375 L 622.3431396484375 434.3099670410156 C 621.7164916992188 434.623291015625 621.0498046875 434.85662841796875 620.3431396484375 435.0099792480469 C 619.6298217773438 435.1566467285156 618.7598266601562 435.22998046875 617.733154296875 435.22998046875 ZM 642.61669921875 430.2399597167969 C 642.61669921875 431.78662109375 642.0599975585938 433.0066223144531 640.9466552734375 433.89996337890625 C 639.8333740234375 434.78662109375 638.2833251953125 435.22998046875 636.2966918945312 435.22998046875 C 634.4700317382812 435.22998046875 632.8533325195312 434.8866271972656 631.4466552734375 434.1999816894531 L 631.4466552734375 430.8299560546875 C 632.606689453125 431.3432922363281 633.586669921875 431.7066345214844 634.3866577148438 431.91998291015625 C 635.1867065429688 432.12664794921875 635.9166870117188 432.22998046875 636.57666015625 432.22998046875 C 637.376708984375 432.22998046875 637.989990234375 432.0799560546875 638.4166870117188 431.77996826171875 C 638.8433227539062 431.4732971191406 639.0567016601562 431.01995849609375 639.0567016601562 430.41998291015625 C 639.0567016601562 430.0799560546875 638.9633178710938 429.77996826171875 638.7766723632812 429.51995849609375 C 638.5833740234375 429.2599792480469 638.3067016601562 429.0099792480469 637.9466552734375 428.76995849609375 C 637.5800170898438 428.5233154296875 636.8400268554688 428.1366271972656 635.7266845703125 427.6099548339844 C 634.6799926757812 427.11663818359375 633.8933715820312 426.643310546875 633.36669921875 426.1899719238281 C 632.8466796875 425.73663330078125 632.4299926757812 425.2099609375 632.11669921875 424.6099548339844 C 631.8033447265625 424.0032958984375 631.6466674804688 423.2999572753906 631.6466674804688 422.4999694824219 C 631.6466674804688 420.97998046875 632.1600341796875 419.78662109375 633.1867065429688 418.91998291015625 C 634.2133178710938 418.0533142089844 635.6333618164062 417.6199645996094 637.4466552734375 417.6199645996094 C 638.3400268554688 417.6199645996094 639.1900024414062 417.72662353515625 639.9967041015625 417.9399719238281 C 640.8033447265625 418.1466369628906 641.6500244140625 418.44329833984375 642.5366821289062 418.8299560546875 L 641.36669921875 421.64996337890625 C 640.4466552734375 421.2766418457031 639.6900024414062 421.0166320800781 639.0966796875 420.8699645996094 C 638.4967041015625 420.7166442871094 637.9066772460938 420.6399841308594 637.32666015625 420.6399841308594 C 636.6400146484375 420.6399841308594 636.1133422851562 420.7999572753906 635.7467041015625 421.1199645996094 C 635.3800048828125 421.4466247558594 635.1966552734375 421.86663818359375 635.1966552734375 422.3799743652344 C 635.1966552734375 422.6999816894531 635.27001953125 422.97998046875 635.4166870117188 423.219970703125 C 635.5700073242188 423.45330810546875 635.8067016601562 423.68328857421875 636.126708984375 423.90997314453125 C 636.453369140625 424.1299743652344 637.2233276367188 424.52996826171875 638.4367065429688 425.1099548339844 C 640.0366821289062 425.87664794921875 641.1333618164062 426.643310546875 641.7266845703125 427.40997314453125 C 642.3200073242188 428.18328857421875 642.61669921875 429.12664794921875 642.61669921875 430.2399597167969 ZM 652.634521484375 435.22998046875 C 651.0945434570312 435.22998046875 649.8878173828125 434.6733093261719 649.0145263671875 433.5599670410156 L 648.8245239257812 433.5599670410156 C 648.951171875 434.6532897949219 649.0145263671875 435.28662109375 649.0145263671875 435.4599609375 L 649.0145263671875 440.76995849609375 L 645.4445190429688 440.76995849609375 L 645.4445190429688 421.89996337890625 L 648.3445434570312 421.89996337890625 L 648.8544921875 423.5999755859375 L 649.0145263671875 423.5999755859375 C 649.8478393554688 422.2999572753906 651.0845336914062 421.64996337890625 652.7244873046875 421.64996337890625 C 654.2711791992188 421.64996337890625 655.4844970703125 422.2499694824219 656.364501953125 423.4499816894531 C 657.2378540039062 424.643310546875 657.6744995117188 426.3033142089844 657.6744995117188 428.4299621582031 C 657.6744995117188 429.82330322265625 657.4678344726562 431.03662109375 657.0545043945312 432.0699768066406 C 656.6478271484375 433.1033020019531 656.0645141601562 433.8899841308594 655.3045043945312 434.4299621582031 C 654.5512084960938 434.96331787109375 653.6611938476562 435.22998046875 652.634521484375 435.22998046875 M 651.5845336914062 424.5099792480469 C 650.6978759765625 424.5099792480469 650.0512084960938 424.7832946777344 649.64453125 425.3299560546875 C 649.2378540039062 425.8699645996094 649.02783203125 426.7666320800781 649.0145263671875 428.01995849609375 L 649.0145263671875 428.39996337890625 C 649.0145263671875 429.806640625 649.2244873046875 430.816650390625 649.64453125 431.4299621582031 C 650.057861328125 432.03662109375 650.7178344726562 432.3399658203125 651.62451171875 432.3399658203125 C 653.2244873046875 432.3399658203125 654.0245361328125 431.01995849609375 654.0245361328125 428.3799743652344 C 654.0245361328125 427.0932922363281 653.8278198242188 426.12664794921875 653.4345092773438 425.47998046875 C 653.0411987304688 424.83331298828125 652.4244995117188 424.5099792480469 651.5845336914062 424.5099792480469 ZM 672.722900390625 434.9999694824219 L 669.1429443359375 434.9999694824219 L 669.1429443359375 427.3499755859375 C 669.1429443359375 425.4566345214844 668.4429321289062 424.5099792480469 667.0429077148438 424.5099792480469 C 666.0429077148438 424.5099792480469 665.319580078125 424.8499755859375 664.8729248046875 425.52996826171875 C 664.42626953125 426.2099609375 664.2029418945312 427.31329345703125 664.2029418945312 428.8399658203125 L 664.2029418945312 434.9999694824219 L 660.6329345703125 434.9999694824219 L 660.6329345703125 416.76995849609375 L 664.2029418945312 416.76995849609375 L 664.2029418945312 420.47998046875 C 664.2029418945312 420.7666320800781 664.17626953125 421.4466247558594 664.1229248046875 422.51995849609375 L 664.0429077148438 423.5699768066406 L 664.222900390625 423.5699768066406 C 665.02294921875 422.28997802734375 666.2896118164062 421.64996337890625 668.02294921875 421.64996337890625 C 669.5629272460938 421.64996337890625 670.7296142578125 422.06329345703125 671.52294921875 422.8899841308594 C 672.3229370117188 423.7232971191406 672.722900390625 424.9132995605469 672.722900390625 426.4599609375 L 672.722900390625 434.9999694824219 ZM 681.8243408203125 424.1999816894531 C 681.0643310546875 424.1999816894531 680.4710083007812 424.4399719238281 680.0443725585938 424.91998291015625 C 679.61767578125 425.39996337890625 679.3710327148438 426.0799560546875 679.3043823242188 426.9599609375 L 684.3243408203125 426.9599609375 C 684.3043823242188 426.0799560546875 684.0743408203125 425.39996337890625 683.6343383789062 424.91998291015625 C 683.1876831054688 424.4399719238281 682.5843505859375 424.1999816894531 681.8243408203125 424.1999816894531 M 682.3243408203125 435.22998046875 C 680.2177124023438 435.22998046875 678.571044921875 434.64996337890625 677.3843383789062 433.4899597167969 C 676.1976928710938 432.32330322265625 675.6043701171875 430.6733093261719 675.6043701171875 428.53997802734375 C 675.6043701171875 426.3466491699219 676.1510009765625 424.64996337890625 677.2443237304688 423.4499816894531 C 678.3443603515625 422.2499694824219 679.8643798828125 421.64996337890625 681.8043823242188 421.64996337890625 C 683.6510009765625 421.64996337890625 685.0910034179688 422.1766357421875 686.1243286132812 423.22998046875 C 687.15771484375 424.28997802734375 687.6743774414062 425.7499694824219 687.6743774414062 427.6099548339844 L 687.6743774414062 429.3399658203125 L 679.224365234375 429.3399658203125 C 679.2643432617188 430.3533020019531 679.5643310546875 431.1466369628906 680.1243286132812 431.719970703125 C 680.6910400390625 432.28662109375 681.4810180664062 432.5699768066406 682.4943237304688 432.5699768066406 C 683.281005859375 432.5699768066406 684.0277099609375 432.4899597167969 684.734375 432.3299560546875 C 685.434326171875 432.1632995605469 686.1676635742188 431.89996337890625 686.934326171875 431.53997802734375 L 686.934326171875 434.3099670410156 C 686.3076782226562 434.623291015625 685.6409912109375 434.85662841796875 684.934326171875 435.0099792480469 C 684.2210083007812 435.1566467285156 683.3510131835938 435.22998046875 682.3243408203125 435.22998046875 ZM 697.8941040039062 421.64996337890625 C 698.3740844726562 421.64996337890625 698.7741088867188 421.6866455078125 699.0941162109375 421.7599792480469 L 698.8341064453125 425.1099548339844 C 698.540771484375 425.02996826171875 698.1874389648438 424.9899597167969 697.7741088867188 424.9899597167969 C 696.6340942382812 424.9899597167969 695.7440795898438 425.2832946777344 695.1041259765625 425.8699645996094 C 694.4707641601562 426.4566345214844 694.1541137695312 427.2766418457031 694.1541137695312 428.3299560546875 L 694.1541137695312 434.9999694824219 L 690.5841064453125 434.9999694824219 L 690.5841064453125 421.89996337890625 L 693.2841186523438 421.89996337890625 L 693.8140869140625 424.0999755859375 L 693.9940795898438 424.0999755859375 C 694.3941040039062 423.36663818359375 694.9407958984375 422.7766418457031 695.6340942382812 422.3299560546875 C 696.3274536132812 421.87664794921875 697.0807495117188 421.64996337890625 697.8941040039062 421.64996337890625 ZM 706.902099609375 424.1999816894531 C 706.14208984375 424.1999816894531 705.5487670898438 424.4399719238281 705.1221313476562 424.91998291015625 C 704.6954345703125 425.39996337890625 704.4487915039062 426.0799560546875 704.3821411132812 426.9599609375 L 709.402099609375 426.9599609375 C 709.3821411132812 426.0799560546875 709.152099609375 425.39996337890625 708.7120971679688 424.91998291015625 C 708.2654418945312 424.4399719238281 707.662109375 424.1999816894531 706.902099609375 424.1999816894531 M 707.402099609375 435.22998046875 C 705.2954711914062 435.22998046875 703.6488037109375 434.64996337890625 702.4620971679688 433.4899597167969 C 701.2754516601562 432.32330322265625 700.68212890625 430.6733093261719 700.68212890625 428.53997802734375 C 700.68212890625 426.3466491699219 701.228759765625 424.64996337890625 702.3220825195312 423.4499816894531 C 703.422119140625 422.2499694824219 704.942138671875 421.64996337890625 706.8821411132812 421.64996337890625 C 708.728759765625 421.64996337890625 710.1687622070312 422.1766357421875 711.2020874023438 423.22998046875 C 712.2354736328125 424.28997802734375 712.7521362304688 425.7499694824219 712.7521362304688 427.6099548339844 L 712.7521362304688 429.3399658203125 L 704.3021240234375 429.3399658203125 C 704.3421020507812 430.3533020019531 704.64208984375 431.1466369628906 705.2020874023438 431.719970703125 C 705.768798828125 432.28662109375 706.5587768554688 432.5699768066406 707.5720825195312 432.5699768066406 C 708.3587646484375 432.5699768066406 709.10546875 432.4899597167969 709.8121337890625 432.3299560546875 C 710.5120849609375 432.1632995605469 711.2454223632812 431.89996337890625 712.0120849609375 431.53997802734375 L 712.0120849609375 434.3099670410156 C 711.3854370117188 434.623291015625 710.71875 434.85662841796875 710.0120849609375 435.0099792480469 C 709.2987670898438 435.1566467285156 708.4287719726562 435.22998046875 707.402099609375 435.22998046875 Z" transform="matrix(8.53197956085205, 0, 0, 8.53197956085205, -4313.58984375, -3609.41455078125)" style="fill: rgb(255, 255, 255); white-space: pre; color: rgb(245, 251, 255);"/><g transform="matrix(3.1504034996032715, 3.1522719860076904, -3.1522719860076904, 3.1504034996032715, 718.6264038085938, -3483.4322662353516)"><path d="M 562.5999755859375 646.9000244140625 L 545.5999755859375 629.9000244140625 L 518.7000122070312 656.7000122070312 L 491.8999938964844 629.9000244140625 L 474.8999938964844 646.9000244140625 L 501.70001220703125 673.7999877929688 L 474.8999938964844 700.5999755859375 L 491.8999938964844 717.5999755859375 L 518.7000122070312 690.7999877929688 L 545.5999755859375 717.5999755859375 L 562.5999755859375 700.5999755859375 L 535.7999877929688 673.7999877929688 Z" class="st0" style="fill: rgb(28, 184, 190);" transform="matrix(1, 0, 0, 1, 0, 0)"/></g><g transform="matrix(2.9406447410583496, 2.9593071937561035, -2.9593071937561035, 2.9406447410583496, 2906.795654296875, -5436.853897094727)"><g transform="matrix(1, 0, 0, 1, 0, 0)">
	<path class="st0" d="M 493.9 1456.9 L 472.7 1435.7 L 499.59999999999997 1408.8 L 472.7 1381.8999999999999 L 493.9 1360.6999999999998 L 520.8 1387.6 L 547.6999999999999 1360.6999999999998 L 568.9 1381.8999999999999 L 542 1408.8 L 568.9 1435.7 L 547.6999999999999 1456.9 L 520.8 1430 L 493.9 1456.9 Z M 520.7 1421.5 L 547.6 1448.4 L 560.4 1435.6000000000001 L 533.5 1408.7 L 560.4 1381.8 L 547.6 1369 L 520.7 1395.9 L 493.80000000000007 1369 L 481.00000000000006 1381.8 L 507.89783325195316 1408.007861328125 L 481.00000000000006 1435.6000000000001 L 493.80000000000007 1448.4 L 520.7 1421.5 Z" style="fill: rgb(255, 255, 255); fill-opacity: 1;"/>
</g></g><path style="fill: rgb(51, 51, 51); fill-opacity: 0.57; stroke: rgb(0, 0, 0); stroke-opacity: 1; stroke-width: 0; paint-order: fill;" d="M 218.33139038085938 368.9334411621094" transform="matrix(1, 0, 0, 1, 24.856666564941406, -183.60004425048828)"/><path style="fill: rgb(255, 255, 255); fill-opacity: 1; stroke: rgb(0, 0, 0); stroke-opacity: 1; stroke-width: 0; paint-order: fill;" d="M 620.9502563476562 259.1551818847656"/></svg>