<svg xmlns="http://www.w3.org/2000/svg" xmlns:xlink="http://www.w3.org/1999/xlink"
    viewBox="0 0 266.089 92">
    <defs>
        <linearGradient id="linear-gradient" x1="607.274" y1="386.457" x2="671.516" y2="322.215"
            gradientUnits="userSpaceOnUse">
            <stop offset="0" stop-color="#0077c5" />
            <stop offset="0.074" stop-color="#0083ca" />
            <stop offset="0.277" stop-color="#009fd5" />
            <stop offset="0.455" stop-color="#00b0dd" />
            <stop offset="0.587" stop-color="#00b6df" />
        </linearGradient>
        <linearGradient id="linear-gradient-2" x1="606.213" y1="387.517" x2="671.515" y2="322.215"
            gradientUnits="userSpaceOnUse">
            <stop offset="0" stop-color="#00a681" />
            <stop offset="1" stop-color="#00de7e" />
        </linearGradient>
        <linearGradient id="linear-gradient-3" x1="605.16" y1="386.465" x2="670.463" y2="321.162"
            xlink:href="#linear-gradient-2" />
    </defs>
    <title>logo-1</title>
    <g style="isolation:isolate">
        <g id="Layer_1" data-name="Layer 1">
            <path
                d="M712.708,365.534a14.989,14.989,0,0,1-6.182,1.112c-6.6,0-11.565-4.168-11.565-11.843,0-7.328,4.967-12.294,12.225-12.294a12.537,12.537,0,0,1,5.556,1.042l-.729,2.466a11,11,0,0,0-4.723-.973c-5.487,0-9.134,3.508-9.134,9.655,0,5.73,3.3,9.411,9,9.411a12.087,12.087,0,0,0,4.932-.972Z"
                transform="translate(-593.395 -308.336)" fill="#009cde" />
            <path
                d="M725.455,366.3l-.243-2.118h-.105a6.257,6.257,0,0,1-5.139,2.5,4.788,4.788,0,0,1-5.14-4.827c0-4.063,3.611-6.286,10.106-6.251v-.348c0-1.389-.382-3.889-3.821-3.889a8.375,8.375,0,0,0-4.375,1.25l-.7-2.014a10.435,10.435,0,0,1,5.522-1.494c5.14,0,6.39,3.508,6.39,6.877v6.286a23.592,23.592,0,0,0,.278,4.028ZM725,357.72c-3.334-.069-7.12.521-7.12,3.786a2.7,2.7,0,0,0,2.883,2.917,4.182,4.182,0,0,0,4.063-2.813,3.2,3.2,0,0,0,.174-.972Z"
                transform="translate(-593.395 -308.336)" fill="#009cde" />
            <path
                d="M732.888,354.733c0-1.979-.034-3.681-.139-5.244h2.674l.1,3.3h.139a5.043,5.043,0,0,1,4.653-3.682,3.285,3.285,0,0,1,.869.1v2.882a4.62,4.62,0,0,0-1.042-.1c-2.153,0-3.681,1.632-4.1,3.925a8.631,8.631,0,0,0-.139,1.423v8.96h-3.021Z"
                transform="translate(-593.395 -308.336)" fill="#009cde" />
            <path
                d="M745.6,358.45c.069,4.133,2.709,5.834,5.764,5.834a11.056,11.056,0,0,0,4.654-.868l.521,2.188a13.619,13.619,0,0,1-5.592,1.042c-5.175,0-8.265-3.4-8.265-8.474s2.987-9.065,7.883-9.065c5.488,0,6.947,4.828,6.947,7.919a11.651,11.651,0,0,1-.1,1.424Zm8.96-2.188c.034-1.945-.8-4.967-4.238-4.967-3.091,0-4.445,2.848-4.688,4.967Z"
                transform="translate(-593.395 -308.336)" fill="#009cde" />
            <path
                d="M760.985,362.617a10.7,10.7,0,0,0,5.418,1.528c3.091,0,4.9-1.632,4.9-3.994,0-2.188-1.25-3.438-4.41-4.653-3.821-1.355-6.183-3.334-6.183-6.634,0-3.646,3.022-6.355,7.571-6.355a10.629,10.629,0,0,1,5.175,1.146l-.834,2.466a9.315,9.315,0,0,0-4.445-1.112c-3.195,0-4.41,1.91-4.41,3.508,0,2.188,1.424,3.265,4.653,4.515,3.96,1.528,5.974,3.438,5.974,6.876,0,3.612-2.674,6.738-8.2,6.738a12.088,12.088,0,0,1-5.972-1.494Z"
                transform="translate(-593.395 -308.336)" fill="#46b063" />
            <path
                d="M778.421,354.977c0-2.154-.069-3.89-.139-5.488h2.743l.139,2.883h.07a6.608,6.608,0,0,1,5.973-3.265c4.064,0,7.12,3.439,7.12,8.544,0,6.043-3.681,9.029-7.64,9.029a5.894,5.894,0,0,1-5.175-2.639h-.07v9.134h-3.021Zm3.021,4.48a6.925,6.925,0,0,0,.139,1.25,4.717,4.717,0,0,0,4.585,3.577c3.23,0,5.1-2.639,5.1-6.494,0-3.369-1.771-6.251-5-6.251a4.878,4.878,0,0,0-4.62,3.785,5.006,5.006,0,0,0-.208,1.25Z"
                transform="translate(-593.395 -308.336)" fill="#46b063" />
            <path
                d="M798.183,341.641h3.056v10.488h.07a5.673,5.673,0,0,1,2.187-2.153,6.292,6.292,0,0,1,3.126-.869c2.257,0,5.869,1.39,5.869,7.189v10h-3.056v-9.654c0-2.709-1.007-5-3.89-5a4.391,4.391,0,0,0-4.1,3.056,3.693,3.693,0,0,0-.208,1.458V366.3h-3.056Z"
                transform="translate(-593.395 -308.336)" fill="#46b063" />
            <path
                d="M819.161,358.45c.069,4.133,2.708,5.834,5.765,5.834a11.051,11.051,0,0,0,4.653-.868l.522,2.188a13.623,13.623,0,0,1-5.592,1.042c-5.175,0-8.266-3.4-8.266-8.474s2.987-9.065,7.884-9.065c5.487,0,6.946,4.828,6.946,7.919a11.694,11.694,0,0,1-.1,1.424Zm8.96-2.188c.034-1.945-.8-4.967-4.237-4.967-3.091,0-4.446,2.848-4.689,4.967Z"
                transform="translate(-593.395 -308.336)" fill="#46b063" />
            <path
                d="M834.859,354.733c0-1.979-.035-3.681-.138-5.244H837.4l.1,3.3h.139a5.041,5.041,0,0,1,4.653-3.682,3.285,3.285,0,0,1,.869.1v2.882a4.627,4.627,0,0,0-1.042-.1c-2.153,0-3.681,1.632-4.1,3.925a8.524,8.524,0,0,0-.139,1.423v8.96h-3.022Z"
                transform="translate(-593.395 -308.336)" fill="#46b063" />
            <path
                d="M847.571,358.45c.07,4.133,2.708,5.834,5.765,5.834a11.051,11.051,0,0,0,4.653-.868l.522,2.188a13.619,13.619,0,0,1-5.592,1.042c-5.175,0-8.266-3.4-8.266-8.474s2.988-9.065,7.884-9.065c5.487,0,6.946,4.828,6.946,7.919a11.694,11.694,0,0,1-.1,1.424Zm8.96-2.188c.034-1.945-.8-4.967-4.237-4.967-3.091,0-4.445,2.848-4.689,4.967Z"
                transform="translate(-593.395 -308.336)" fill="#46b063" />
            <path
                d="M657.636,336.094v-2.331c-5.13,3.812-5.4,7.474-6.765,9.427-2.413,3.461-4.565,3.011-4.968,1.757-.625-1.943.217-7.051-1.58-7.048-7.091.012-12.742.32-17.282,9.039s-7.754,5.161-7.754,5.161,5.828-14.255,10.2-19.071c3.3-3.628,11.286-4.83,17.888-6.357a42.352,42.352,0,0,0,10.261-3.855v-14.48H621.153v27.758H593.4v36.483h27.758v4.494c5.523-3.916,5.779-7.717,7.175-9.721,2.413-3.46,4.565-3.01,4.969-1.756.625,1.942-.217,7.05,1.579,7.047,7.091-.012,12.742-.32,17.282-9.038s7.755-5.162,7.755-5.162-5.828,14.256-10.2,19.071c-3.295,3.629-11.286,4.83-17.888,6.357a42.536,42.536,0,0,0-10.671,4.079v12.388h36.483V372.577H685.4V336.094ZM639.4,363.538c-5.65-1.89-9.272-6.751-8.532-10.843a4.177,4.177,0,0,1,5.352-3.461,6.046,6.046,0,0,1,3.18,2.329,6.047,6.047,0,0,1,3.179-2.329,4.179,4.179,0,0,1,5.353,3.461C648.667,356.787,645.045,361.648,639.4,363.538Z"
                transform="translate(-593.395 -308.336)" fill="url(#linear-gradient)" />
            <path
                d="M621.008,336.094h.145V308.336h36.483v14.48a42.352,42.352,0,0,1-10.261,3.855c-6.6,1.527-14.592,2.729-17.888,6.357A41.587,41.587,0,0,0,624.433,341Q622.627,338.62,621.008,336.094Zm11.359,13.926a3.915,3.915,0,0,1,3.848-.786,6.046,6.046,0,0,1,3.18,2.329,6.047,6.047,0,0,1,3.179-2.329,4.177,4.177,0,0,1,5.352,3.461c.463,2.557-.778,5.415-3.153,7.66,1.356.96,2.729,1.9,4.127,2.8q1.277.822,2.593,1.645c.224-.382.447-.776.665-1.2,4.54-8.719,7.755-5.162,7.755-5.162s-1.762,4.307-4.075,8.986c3.159,1.844,6.446,3.6,9.827,5.15H685.4V336.094H657.636v-2.331c-5.13,3.812-5.4,7.474-6.765,9.427-2.413,3.461-4.565,3.011-4.968,1.757-.626-1.943.217-7.051-1.58-7.048-6.625.012-11.994.285-16.373,7.433Q630.066,347.758,632.367,350.02Z"
                transform="translate(-593.395 -308.336)" fill="url(#linear-gradient-2)" />
            <path
                d="M651.274,342.509c1.07-2.055,1.777-5.339,6.362-8.746v2.331H685.4v26.837a89.471,89.471,0,0,1-25.785-13.374A100.562,100.562,0,0,1,651.274,342.509Zm-13.04-13.734c2.962-.8,6.188-1.421,9.141-2.1a42.352,42.352,0,0,0,10.261-3.855v-14.48H626.587C628.375,316.081,633.084,322.754,638.234,328.775Z"
                transform="translate(-593.395 -308.336)" opacity="0.25"
                fill="url(#linear-gradient-3)" style="mix-blend-mode:screen" />
        </g>
    </g>
</svg>