<svg xmlns="http://www.w3.org/2000/svg" xmlns:xlink="http://www.w3.org/1999/xlink"
    viewBox="0 0 312.405 108.015">
    <defs>
        <linearGradient id="linear-gradient" x1="610.419" y1="400.055" x2="685.843" y2="324.631"
            gradientUnits="userSpaceOnUse">
            <stop offset="0" stop-color="#0077c5" />
            <stop offset="0.074" stop-color="#0083ca" />
            <stop offset="0.277" stop-color="#009fd5" />
            <stop offset="0.455" stop-color="#00b0dd" />
            <stop offset="0.587" stop-color="#00b6df" />
        </linearGradient>
        <linearGradient id="linear-gradient-2" x1="609.174" y1="401.3" x2="685.843" y2="324.631"
            gradientUnits="userSpaceOnUse">
            <stop offset="0" stop-color="#00a681" />
            <stop offset="1" stop-color="#00de7e" />
        </linearGradient>
        <linearGradient id="linear-gradient-3" x1="607.938" y1="400.065" x2="684.607" y2="323.395"
            xlink:href="#linear-gradient-2" />
    </defs>
    <title>logo-2-GT</title>
    <g style="isolation:isolate">
        <g id="Layer_1" data-name="Layer 1">
            <path
                d="M734.2,375.492a17.616,17.616,0,0,1-7.257,1.3c-7.747,0-13.577-4.892-13.577-13.9,0-8.6,5.83-14.434,14.352-14.434a14.713,14.713,0,0,1,6.523,1.224l-.856,2.894a12.929,12.929,0,0,0-5.545-1.141c-6.442,0-10.723,4.118-10.723,11.334,0,6.727,3.873,11.049,10.56,11.049a14.206,14.206,0,0,0,5.79-1.141Z"
                transform="translate(-594.124 -308.336)" fill="#009cde" />
            <path
                d="M749.171,376.389l-.286-2.488h-.122a7.349,7.349,0,0,1-6.034,2.936,5.622,5.622,0,0,1-6.035-5.667c0-4.771,4.241-7.38,11.865-7.339v-.408c0-1.631-.449-4.566-4.485-4.566a9.824,9.824,0,0,0-5.136,1.468l-.817-2.365a12.249,12.249,0,0,1,6.483-1.753c6.035,0,7.5,4.118,7.5,8.072v7.38a27.747,27.747,0,0,0,.327,4.73Zm-.53-10.071c-3.914-.082-8.359.612-8.359,4.444a3.175,3.175,0,0,0,3.384,3.425,4.911,4.911,0,0,0,4.771-3.3,3.757,3.757,0,0,0,.2-1.142Z"
                transform="translate(-594.124 -308.336)" fill="#009cde" />
            <path
                d="M757.9,362.812c0-2.324-.041-4.322-.163-6.157h3.139l.123,3.873h.163a5.92,5.92,0,0,1,5.463-4.321,3.913,3.913,0,0,1,1.02.122v3.384a5.432,5.432,0,0,0-1.224-.122c-2.527,0-4.321,1.916-4.811,4.607a10.058,10.058,0,0,0-.163,1.672v10.519H757.9Z"
                transform="translate(-594.124 -308.336)" fill="#009cde" />
            <path
                d="M772.822,367.174c.082,4.852,3.181,6.85,6.769,6.85a13,13,0,0,0,5.464-1.019l.611,2.568A15.981,15.981,0,0,1,779.1,376.8c-6.076,0-9.7-4-9.7-9.948s3.506-10.641,9.255-10.641c6.442,0,8.155,5.667,8.155,9.3a13.688,13.688,0,0,1-.122,1.671Zm10.52-2.569c.041-2.283-.938-5.83-4.975-5.83-3.628,0-5.219,3.344-5.5,5.83Z"
                transform="translate(-594.124 -308.336)" fill="#009cde" />
            <path
                d="M790.888,372.067a12.574,12.574,0,0,0,6.36,1.794c3.629,0,5.749-1.917,5.749-4.689,0-2.568-1.468-4.036-5.179-5.463-4.484-1.59-7.256-3.914-7.256-7.788,0-4.28,3.546-7.461,8.887-7.461a12.47,12.47,0,0,1,6.075,1.346l-.978,2.894a10.951,10.951,0,0,0-5.219-1.3c-3.751,0-5.178,2.242-5.178,4.118,0,2.568,1.672,3.832,5.464,5.3,4.648,1.794,7.012,4.037,7.012,8.073,0,4.24-3.139,7.909-9.621,7.909a14.216,14.216,0,0,1-7.014-1.753Z"
                transform="translate(-594.124 -308.336)" fill="#46b063" />
            <path
                d="M811.358,363.1c0-2.528-.082-4.566-.163-6.442h3.221l.163,3.384h.081a7.761,7.761,0,0,1,7.014-3.832c4.769,0,8.357,4.036,8.357,10.029,0,7.1-4.321,10.6-8.969,10.6a6.922,6.922,0,0,1-6.076-3.1h-.081v10.723h-3.547Zm3.547,5.259a8.027,8.027,0,0,0,.163,1.468,5.537,5.537,0,0,0,5.382,4.2c3.792,0,5.993-3.1,5.993-7.625,0-3.954-2.079-7.338-5.871-7.338a6.218,6.218,0,0,0-5.667,5.912Z"
                transform="translate(-594.124 -308.336)" fill="#46b063" />
            <path
                d="M834.56,347.441h3.587v12.313h.082a6.655,6.655,0,0,1,2.568-2.528,7.38,7.38,0,0,1,3.67-1.019c2.65,0,6.89,1.631,6.89,8.439v11.743H847.77V365.054c0-3.18-1.183-5.871-4.567-5.871a5.155,5.155,0,0,0-4.811,3.588,4.338,4.338,0,0,0-.245,1.712v11.906H834.56Z"
                transform="translate(-594.124 -308.336)" fill="#46b063" />
            <path
                d="M859.189,367.174c.082,4.852,3.18,6.85,6.768,6.85a12.986,12.986,0,0,0,5.463-1.019l.612,2.568a15.981,15.981,0,0,1-6.564,1.223c-6.075,0-9.7-4-9.7-9.948s3.507-10.641,9.256-10.641c6.441,0,8.154,5.667,8.154,9.3a13.445,13.445,0,0,1-.123,1.671Zm10.519-2.569c.041-2.283-.937-5.83-4.974-5.83-3.629,0-5.218,3.344-5.5,5.83Z"
                transform="translate(-594.124 -308.336)" fill="#46b063" />
            <path
                d="M877.62,362.812c0-2.324-.041-4.322-.163-6.157H880.6l.123,3.873h.163a5.918,5.918,0,0,1,5.463-4.321,3.9,3.9,0,0,1,1.019.122v3.384a5.417,5.417,0,0,0-1.223-.122c-2.528,0-4.322,1.916-4.811,4.607a10.058,10.058,0,0,0-.163,1.672v10.519H877.62Z"
                transform="translate(-594.124 -308.336)" fill="#46b063" />
            <path
                d="M892.545,367.174c.081,4.852,3.18,6.85,6.768,6.85a12.978,12.978,0,0,0,5.462-1.019l.613,2.568a15.987,15.987,0,0,1-6.565,1.223c-6.075,0-9.7-4-9.7-9.948s3.507-10.641,9.256-10.641c6.441,0,8.154,5.667,8.154,9.3a13.445,13.445,0,0,1-.123,1.671Zm10.518-2.569c.041-2.283-.937-5.83-4.973-5.83-3.629,0-5.219,3.344-5.5,5.83Z"
                transform="translate(-594.124 -308.336)" fill="#46b063" />
            <path
                d="M669.548,340.926V338.19c-6.023,4.475-6.344,8.774-7.943,11.068-2.832,4.062-5.359,3.534-5.833,2.062-.734-2.281.255-8.279-1.854-8.275-8.325.015-14.96.376-20.29,10.612s-9.105,6.06-9.105,6.06,6.842-16.737,11.976-22.39c3.869-4.261,13.251-5.671,21-7.464a49.749,49.749,0,0,0,12.047-4.526v-17H626.715v32.59H594.124V383.76h32.591v5.276c6.484-4.6,6.784-9.061,8.424-11.413,2.832-4.063,5.359-3.535,5.833-2.062.734,2.28-.255,8.278,1.854,8.274,8.326-.014,14.961-.376,20.291-10.612s9.1-6.06,9.1-6.06-6.842,16.737-11.976,22.391c-3.869,4.26-13.251,5.67-21,7.463a49.945,49.945,0,0,0-12.528,4.789V416.35h42.833V383.76h32.591V340.926Zm-21.417,32.221c-6.633-2.219-10.885-7.926-10.017-12.731a4.905,4.905,0,0,1,6.284-4.063,7.1,7.1,0,0,1,3.733,2.735,7.1,7.1,0,0,1,3.734-2.735,4.9,4.9,0,0,1,6.283,4.063C659.017,365.221,654.765,370.928,648.131,373.147Z"
                transform="translate(-594.124 -308.336)" fill="url(#linear-gradient)" />
            <path
                d="M626.544,340.926h.17v-32.59h42.834v17a49.749,49.749,0,0,1-12.047,4.526c-7.751,1.793-17.133,3.2-21,7.464a48.809,48.809,0,0,0-5.935,9.361Q628.446,343.891,626.544,340.926Zm13.336,16.35a4.6,4.6,0,0,1,4.518-.923,7.1,7.1,0,0,1,3.733,2.735,7.1,7.1,0,0,1,3.734-2.735,4.9,4.9,0,0,1,6.283,4.063c.543,3-.914,6.358-3.7,8.994,1.592,1.127,3.2,2.229,4.845,3.286q1.5.964,3.045,1.932c.263-.449.524-.912.781-1.4,5.33-10.236,9.1-6.06,9.1-6.06s-2.069,5.057-4.784,10.55c3.708,2.165,7.568,4.232,11.538,6.047h23.164V340.926H669.548V338.19c-6.023,4.475-6.344,8.774-7.943,11.068-2.832,4.062-5.359,3.534-5.833,2.062-.734-2.281.255-8.279-1.854-8.275-7.779.014-14.082.335-19.224,8.727Q637.18,354.621,639.88,357.276Z"
                transform="translate(-594.124 -308.336)" fill="url(#linear-gradient-2)" />
            <path
                d="M662.078,348.457c1.257-2.412,2.087-6.267,7.47-10.267v2.736h32.591v31.509a105.12,105.12,0,0,1-30.274-15.7A118.24,118.24,0,0,1,662.078,348.457Zm-15.309-16.124c3.477-.939,7.265-1.668,10.732-2.47a49.749,49.749,0,0,0,12.047-4.526v-17H633.1C635.193,317.43,640.722,325.263,646.769,332.333Z"
                transform="translate(-594.124 -308.336)" opacity="0.25"
                fill="url(#linear-gradient-3)" style="mix-blend-mode:screen" />
        </g>
    </g>
</svg>